<svg width="34" height="35" viewBox="0 0 34 35" fill="none" xmlns="http://www.w3.org/2000/svg">
<g clip-path="url(#clip0_2429_24500)">
<path d="M31.1194 3.34668H19.7388V6.19306H31.1194V3.34668Z" fill="#282828"/>
<path d="M33.9574 31.7246H31.1194V31.7815H33.9574V31.7246Z" fill="#282828"/>
<path d="M8.37224 31.7246H5.53418V31.7815H8.37224V31.7246Z" fill="#282828"/>
<path d="M11.2104 31.7246H8.37231V31.7815H11.2104V31.7246Z" fill="#282828"/>
<path d="M16.9007 31.7246H14.0626V31.7815H16.9007V31.7246Z" fill="#282828"/>
<path d="M14.0626 31.7246H11.2103V31.7815H14.0626V31.7246Z" fill="#282828"/>
<path d="M19.7387 31.7246H16.9006V31.7815H19.7387V31.7246Z" fill="#282828"/>
<path d="M22.591 31.7246H19.7388V31.7815H22.591V31.7246Z" fill="#282828"/>
<path d="M25.429 31.7246H22.5909V31.7815H25.429V31.7246Z" fill="#282828"/>
<path d="M28.2813 31.7246H25.4291V31.7815H28.2813V31.7246Z" fill="#282828"/>
<path d="M31.1193 31.7246H28.2812V31.7815H31.1193V31.7246Z" fill="#282828"/>
<path d="M33.9574 6.19238V31.7244H5.53418V29.0061H14.0626V9.05299H11.2103V6.19238H19.7387V9.05299H16.9006V29.0061H25.429V26.1597H28.2813V6.19238H33.9574Z" fill="#282828"/>
<path d="M11.2104 3.34668V6.19306H2.75292V26.1604H5.53422V29.0068H0V3.34668H11.2104Z" fill="#282828"/>
<path opacity="0.6" d="M34.0001 31.7246H33.9575" stroke="#282828" stroke-width="0.05" stroke-miterlimit="10"/>
</g>
<defs>
<clipPath id="clip0_2429_24500">
<rect width="34" height="34" fill="white" transform="translate(0 0.5)"/>
</clipPath>
</defs>
</svg>
