<svg width="34" height="35" viewBox="0 0 34 35" fill="none" xmlns="http://www.w3.org/2000/svg">
<path d="M31.0429 16.5537H25.3286V32.3281H31.0429V16.5537Z" fill="#282828"/>
<path d="M2.85714 13.7998H0V16.6679H2.85714V13.7998Z" fill="#282828"/>
<path d="M5.69992 10.9463H2.84277V13.8144H5.69992V10.9463Z" fill="#282828"/>
<path d="M8.55709 8.07812H5.69995V10.9462H8.55709V8.07812Z" fill="#282828"/>
<path d="M25.4572 5.25293H22.6001V8.121H25.4572V5.25293Z" fill="#282828"/>
<path d="M19.757 8.03516H16.8999V10.9032H19.757V8.03516Z" fill="#282828"/>
<path d="M11.3427 5.28223H8.4856V8.1503H11.3427V5.28223Z" fill="#282828"/>
<path d="M22.6285 2.5V5.25335H22.5999V5.36807H16.8999V8.1501H14.0428V5.36807H11.3428V5.28203H11.3142V2.5H22.6285Z" fill="#282828"/>
<path d="M11.3428 5.28223H11.3142V5.36827H11.3428V5.28223Z" fill="#282828"/>
<path d="M22.6287 5.25293H22.6001V5.36765H22.6287V5.25293Z" fill="#282828"/>
<path d="M22.6142 10.9033H19.7571V13.7714H22.6142V10.9033Z" fill="#282828"/>
<path d="M25.4714 13.7568H22.6143V16.6249H25.4714V13.7568Z" fill="#282828"/>
<path d="M28.3 8.03516H25.4429V10.9032H28.3V8.03516Z" fill="#282828"/>
<path d="M31.1572 10.9033H28.3V13.7714H31.1572V10.9033Z" fill="#282828"/>
<path d="M34 13.7568H31.1428V16.6249H34V13.7568Z" fill="#282828"/>
<path d="M5.58566 16.5967H2.72852V29.6321H5.58566V16.5967Z" fill="#282828"/>
<path d="M25.5715 32.3283V32.5004H5.57153V29.6323H10.6572V23.8818H16.3715V29.6323H25.3287V32.3283H25.5715Z" fill="#282828"/>
<path d="M25.5715 29.6318H25.3286V32.3278H25.5715V29.6318Z" fill="#282828"/>
</svg>
