<svg width="40" height="46" viewBox="0 0 40 46" fill="none" xmlns="http://www.w3.org/2000/svg">
<path d="M34.9375 8.03747V8" stroke="#231F20" stroke-width="0.05" stroke-miterlimit="10"/>
<path opacity="0.6" d="M34.975 8.0376H34.9375" stroke="#231F20" stroke-width="0.05" stroke-miterlimit="10"/>
<path d="M12.4001 27.9834H12.3501V30.4438H12.4001V27.9834Z" stroke="#231F20" stroke-width="0.05" stroke-miterlimit="10"/>
<path d="M12.3999 8.03747V8" stroke="#231F20" stroke-width="0.05" stroke-miterlimit="10"/>
<path d="M27.4247 17.979H27.3872V17.9915H27.4247V17.979Z" stroke="#231F20" stroke-width="0.05" stroke-miterlimit="10"/>
<path d="M27.4506 17.979H27.4248V17.9919H27.4506V17.979Z" fill="#231F20"/>
<path d="M27.4248 30.4438H24.9248V30.4938H27.4248V30.4438Z" stroke="#231F20" stroke-width="0.05" stroke-miterlimit="10"/>
<path d="M29.9373 32.9419H27.4248V32.9919H29.9373V32.9419Z" stroke="#231F20" stroke-width="0.05" stroke-miterlimit="10"/>
<path d="M32.4375 30.4937V32.9916H29.9375V32.9416H32.3625V30.4937H32.4375Z" stroke="#231F20" stroke-width="0.05" stroke-miterlimit="10"/>
<path d="M27.4248 15.4688V15.4937H24.9498V17.9792H24.9248V15.4688H27.4248Z" stroke="#231F20" stroke-width="0.05" stroke-miterlimit="10"/>
<path d="M29.9374 27.9707H27.4624V27.9832H29.9374V27.9707Z" fill="#231F20"/>
<path d="M32.4375 30.4937V32.9916H29.9375V32.9416H32.3625V30.4937H32.4375Z" stroke="#231F20" stroke-width="0.05" stroke-miterlimit="10"/>
<path d="M19.9126 12.9458H17.4126V12.9708H19.9126V12.9458Z" stroke="#231F20" stroke-width="0.05" stroke-miterlimit="10"/>
<path d="M22.4126 10.4731V12.9711H19.9126V12.9461H22.4001V10.4731H22.4126Z" stroke="#231F20" stroke-width="0.05" stroke-miterlimit="10"/>
<path d="M17.4124 32.9419H14.8999V32.9919H17.4124V32.9419Z" stroke="#231F20" stroke-width="0.05" stroke-miterlimit="10"/>
<path d="M22.4126 32.9043H19.9126V32.9917H22.4126V32.9043Z" stroke="#231F20" stroke-width="0.05" stroke-miterlimit="10"/>
<path d="M22.4126 35.4023H19.9126V35.4898H22.4126V35.4023Z" stroke="#231F20" stroke-width="0.05" stroke-miterlimit="10"/>
<path d="M24.9247 30.4937H24.8872V30.5561H24.9247V30.4937Z" stroke="#231F20" stroke-width="0.05" stroke-miterlimit="10"/>
<path d="M24.9251 32.9419H22.4126V32.9919H24.9251V32.9419Z" stroke="#231F20" stroke-width="0.05" stroke-miterlimit="10"/>
<path d="M27.3873 30.4937H24.9248V30.5561H27.3873V30.4937Z" stroke="#231F20" stroke-width="0.05" stroke-miterlimit="10"/>
<path d="M27.4248 32.9419H24.9248V32.9919H27.4248V32.9419Z" stroke="#231F20" stroke-width="0.05" stroke-miterlimit="10"/>
<path opacity="0.6" d="M24.9251 12.9707H22.4126V15.4686H24.9251V12.9707Z" stroke="#231F20" stroke-width="0.05" stroke-miterlimit="10"/>
<path opacity="0.6" d="M17.4124 12.9707H14.8999V15.4686H17.4124V12.9707Z" stroke="#231F20" stroke-width="0.05" stroke-miterlimit="10"/>
<path opacity="0.6" d="M14.8999 15.4688V17.9792H14.8624V15.5062H12.3999V15.4688H14.8999Z" stroke="#231F20" stroke-width="0.05" stroke-miterlimit="10"/>
<path opacity="0.6" d="M14.8998 17.979H14.8623V20.4769H14.8998V17.979Z" stroke="#231F20" stroke-width="0.05" stroke-miterlimit="10"/>
<path opacity="0.6" d="M14.8998 20.4771H14.8623V22.9875H14.8998V20.4771Z" stroke="#231F20" stroke-width="0.05" stroke-miterlimit="10"/>
<path opacity="0.6" d="M14.8998 22.9873H14.8623V25.4852H14.8998V22.9873Z" stroke="#231F20" stroke-width="0.05" stroke-miterlimit="10"/>
<path opacity="0.6" d="M14.8999 25.4854V27.9833H12.3999V27.9458H14.8624V25.4854H14.8999Z" stroke="#231F20" stroke-width="0.05" stroke-miterlimit="10"/>
<path opacity="0.6" d="M9.89971 32.9416V32.9916H7.44971V30.4937H7.46221V32.9416H9.89971Z" stroke="#231F20" stroke-width="0.05" stroke-miterlimit="10"/>
<path opacity="0.6" d="M14.8999 32.9419H12.3999V32.9919H14.8999V32.9419Z" stroke="#231F20" stroke-width="0.05" stroke-miterlimit="10"/>
<path opacity="0.6" d="M12.3999 32.9419H9.8999V32.9919H12.3999V32.9419Z" stroke="#231F20" stroke-width="0.05" stroke-miterlimit="10"/>
<path d="M22.4001 10.4727H17.4126V12.9456H22.4001V10.4727Z" fill="#231F20"/>
<path d="M22.3999 10.4478V10.4727H17.4124V12.9457H17.3999V10.4478H22.3999Z" fill="#231F20"/>
<path d="M22.4126 32.9038H19.9126V32.9912H22.4126V32.9038Z" fill="#231F20"/>
<path d="M21.3001 35.4395H19.9126V35.4894H21.3001V35.4395Z" fill="#231F20"/>
<path d="M21.2998 37.9248H18.7998V37.9373H21.2998V37.9248Z" fill="#231F20"/>
<path d="M17.3872 12.9956H14.8872V15.4935H17.3872V12.9956Z" fill="#231F20"/>
<path d="M14.8624 15.5059H12.3999V27.9455H14.8624V15.5059Z" fill="#231F20"/>
<path d="M12.3998 15.5059H12.3623V18.0038H12.3998V15.5059Z" fill="#231F20"/>
<path d="M24.9126 13.0083H22.4126V15.5062H24.9126V13.0083Z" fill="#231F20"/>
<path d="M29.9624 27.9707V30.4686H29.9374V27.9832H27.4624V27.9707H29.9624Z" fill="#231F20"/>
<path d="M32.3624 30.4937V32.9416H22.4124V32.9041H19.9124V32.9916H22.4124V35.4021H19.9124V35.4895H21.2999V37.925H18.7999V35.4895H17.4124V32.9416H7.4624V30.4937H9.8999V27.9832H12.3499V30.4437H12.3999V30.4937H24.8874V30.5561H27.3874V30.4937H27.4249V30.4437H24.9249V17.9791H24.9499V15.4937H27.4249V17.9791H27.3874V17.9916H27.4499V17.9791H29.9374V27.9708H27.4624V27.9832H29.9374V30.4937H32.3624Z" fill="#231F20"/>
<path d="M12.3501 27.958V27.983H9.9001V30.4559H9.8501V27.958H12.3501Z" fill="#231F20"/>
<path d="M27.4497 15.4937V17.9916H27.3872V17.9791H27.4247V15.4937H27.4497Z" fill="#231F20"/>
<path d="M12.3998 17.8916H12.3623V27.9457H12.3998V17.8916Z" fill="#231F20"/>
<path d="M27.3872 30.4437V30.5561H24.8872V17.8667H24.9497V17.9791H24.9247V30.4437H27.3872Z" fill="#231F20"/>
<path d="M9.8999 30.4434H7.4624V30.4933H9.8999V30.4434Z" fill="#231F20"/>
<path d="M22.4126 32.9038H19.9126V32.9413H22.4126V32.9038Z" fill="#231F20"/>
<path d="M27.4249 30.4434V30.4933H27.3874V30.5558H24.8874V30.4933H12.3999V30.4434H27.4249Z" fill="#231F20"/>
<path d="M32.3625 30.4434H29.9375V30.4933H32.3625V30.4434Z" fill="#231F20"/>
</svg>
