<svg width="39" height="39" viewBox="0 0 39 39" fill="none" xmlns="http://www.w3.org/2000/svg">
<path d="M35.7405 6.42676H32.481V12.9512H35.7405V6.42676Z" fill="#282828" stroke="#282828" stroke-width="0.05" stroke-miterlimit="10"/>
<path d="M25.9457 12.9512H22.6699V16.2052H25.9457V12.9512Z" stroke="#282828" stroke-width="0.05" stroke-miterlimit="10"/>
<path d="M22.6699 19.4756H19.4104V22.7297H22.6699V19.4756Z" stroke="#282828" stroke-width="0.05" stroke-miterlimit="10"/>
<path d="M19.4104 9.68066V12.951H16.1509V16.2051H19.4104V19.4754H22.6699V22.7295H19.4104V25.9835H22.6699V29.2539H29.2052V25.9835H25.9457V22.7295H29.2052V9.68066H19.4104ZM25.9457 16.2051H22.6699V12.951H25.9457V16.2051Z" fill="#282828" stroke="#282828" stroke-width="0.05" stroke-miterlimit="10"/>
<path d="M35.7405 25.9834H32.481V32.5078H35.7405V25.9834Z" fill="#282828" stroke="#282828" stroke-width="0.05" stroke-miterlimit="10"/>
<path d="M12.875 3.17285H6.35596V6.42692H12.875V3.17285Z" fill="#282828" stroke="#282828" stroke-width="0.05" stroke-miterlimit="10"/>
<path d="M32.4809 3.17285H25.9456V6.42692H32.4809V3.17285Z" fill="#282828" stroke="#282828" stroke-width="0.05" stroke-miterlimit="10"/>
<path d="M16.1508 22.7297V25.9837H19.4103V29.2541H9.61548V22.7297H12.875V19.4756H19.4103V22.7297H16.1508Z" fill="#282828" stroke="#282828" stroke-width="0.05" stroke-miterlimit="10"/>
<path d="M19.4104 22.7295H16.1509V25.9836H19.4104V22.7295Z" stroke="#282828" stroke-width="0.05" stroke-miterlimit="10"/>
<path d="M12.875 32.5078H6.35596V35.7619H12.875V32.5078Z" fill="#282828" stroke="#282828" stroke-width="0.05" stroke-miterlimit="10"/>
<path d="M32.4809 32.5078H25.9456V35.7619H32.4809V32.5078Z" fill="#282828" stroke="#282828" stroke-width="0.05" stroke-miterlimit="10"/>
<path d="M6.35594 6.42676H3.16162V12.9512H6.35594V6.42676Z" fill="#282828" stroke="#282828" stroke-width="0.05" stroke-miterlimit="10"/>
<path d="M16.1508 9.68066V12.951H12.875V19.4754H9.61548V9.68066H16.1508Z" fill="#282828" stroke="#282828" stroke-width="0.05" stroke-miterlimit="10"/>
<path d="M6.35594 25.9834H3.16162V32.5078H6.35594V25.9834Z" fill="#282828" stroke="#282828" stroke-width="0.05" stroke-miterlimit="10"/>
</svg>
